<?xml version="1.0" standalone="no"?><!DOCTYPE svg PUBLIC "-//W3C//DTD SVG 1.1//EN" "http://www.w3.org/Graphics/SVG/1.1/DTD/svg11.dtd"><svg t="1638455921667" class="icon" viewBox="0 0 1024 1024" version="1.1" xmlns="http://www.w3.org/2000/svg" p-id="2597" xmlns:xlink="http://www.w3.org/1999/xlink" width="200" height="200"><defs><style type="text/css"></style></defs><path d="M0 1024h495.484c0-291.892 236.626-528.516 528.516-528.516V0C458.46 0 0 458.46 0 1024z" fill="#E6646E" p-id="2598"></path><path d="M1024 495.484V82.58C504.068 82.58 82.58 504.068 82.58 1024h412.904c0-291.892 236.624-528.516 528.516-528.516z" fill="#FFDC64" p-id="2599"></path><path d="M1024 495.484V165.162C549.676 165.162 165.162 549.676 165.162 1024h330.322c0-291.892 236.624-528.516 528.516-528.516z" fill="#BEE86E" p-id="2600"></path><path d="M1024 495.484V247.742c-428.716 0-776.258 347.542-776.258 776.258h247.742c0-291.892 236.624-528.516 528.516-528.516z" fill="#00CDFF" p-id="2601"></path><path d="M1024 495.484v-165.162c-383.108 0-693.678 310.57-693.678 693.678h165.162c0-291.892 236.624-528.516 528.516-528.516z" fill="#00AAF0" p-id="2602"></path><path d="M1024 495.484v-82.58c-337.498 0-611.096 273.596-611.096 611.096h82.58c0-291.892 236.624-528.516 528.516-528.516z" fill="#965AF0" p-id="2603"></path></svg>